{"title":"Dragonwolf 2013 BRRip x264 AC3-MiLLENiUM","uid":9315725,"size":1164087327,"categoryP":"video","categoryS":"movies","magnet":"?xt=urn:btih:44d9a5c5247c1946358bcace0cc5b13b5d6b6b8a&amp;dn=Dragonwolf+2013+BRRip+x264+AC3-MiLLENiUM&amp;tr=udp%3A%2F%2Ftracker.openbittorrent.com%3A80&amp;tr=udp%3A%2F%2Fopen.demonii.com%3A1337&amp;tr=udp%3A%2F%2Ftracker.coppersurfer.tk%3A6969&amp;tr=udp%3A%2F%2Fexodus.desync.com%3A6969","seeders":1,"leechers":0,"uploader":".BONE.","files":5,"time":1386468634,"description":" \n\nThe Devil's Cauldron, a city where depravity and violence has forged a society in which only the lethal and callous can survive, two young men who possess the intellect and ferocity to flourish, carve a name for themselves as the most efficient and unstoppable hit men. Side by side, these two brothers are the deadliest killers, feared by even the most evil criminals.\n\nGeneral\n\nSource...............: DL.720p.BluRay.x264-LeetHD [THANKS]\nIMDb Information.... : http://www.imdb.com/title/tt2164468/\nSample Included......: yes\n\nGeneral\nComplete name                            : Dragonwolf 2013 BRRip x264 AC3-MiLLENiUM.mkv\nFormat                                   : Matroska\nFormat version                           : Version 2\nFile size                                : 1.07 GiB\nDuration                                 : 2h 1mn\nOverall bit rate mode                    : Variable\nOverall bit rate                         : 1 266 Kbps\nEncoded date                             : UTC 2013-12-07 19:53:35\nWriting application                      : mkvmerge v6.5.0 ('Isn't she lovely') built on Oct 20 2013 12:50:05\nWriting library                          : libebml v1.3.0 + libmatroska v1.4.1\n\nVideo\nID                                       : 1\nFormat                                   : AVC\nFormat/Info                              : Advanced Video Codec\nFormat profile                           : &lt;a class=&quot;__cf_email__&quot; href=&quot;/cdn-cgi/l/email-protection&quot; data-cfemail=&quot;337b5a545b737f071d02&quot;&gt;[email&amp;#160;protected]&lt;/a&gt;&lt;script data-cfhash='f9e31' type=&quot;text/javascript&quot;&gt;\n/* &lt;![CDATA[ */!function(){try{var t=&quot;currentScript&quot;in document?document.currentScript:function(){for(var t=document.getElementsByTagName(&quot;script&quot;),e=t.length;e--;)if(t[e].getAttribute(&quot;data-cfhash&quot;))return t[e]}();if(t&amp;&amp;t.previousSibling){var e,r,n,i,c=t.previousSibling,a=c.getAttribute(&quot;data-cfemail&quot;);if(a){for(e=&quot;&quot;,r=parseInt(a.substr(0,2),16),n=2;a.length-n;n+=2)i=parseInt(a.substr(n,2),16)^r,e+=String.fromCharCode(i);e=document.createTextNode(e),c.parentNode.replaceChild(e,c)}t.parentNode.removeChild(t);}}catch(u){}}()/* ]]&gt; */&lt;/script&gt;\nFormat settings, CABAC                   : Yes\nFormat settings, ReFrames                : 3 frames\nCodec ID                                 : V_MPEG4/ISO/AVC\nDuration                                 : 2h 1mn\nBit rate mode                            : Variable\nBit rate                                 : 793 Kbps\nMaximum bit rate                         : 40.0 Mbps\nWidth                                    : 720 pixels\nHeight                                   : 384 pixels\nDisplay aspect ratio                     : 1.85:1\nFrame rate mode                          : Constant\nFrame rate                               : 23.976 fps\nColor space                              : YUV\nChroma subsampling                       : 4:2:0\nBit depth                                : 8 bits\nScan type                                : Progressive\nBits/(Pixel*Frame)                       : 0.120\nStream size                              : 689 MiB (63%)\nWriting library                          : x264 core 140 r2377 1ca7bb9\n\nAudio\nID                                       : 2\nFormat                                   : AC-3\nFormat/Info                              : Audio Coding 3\nMode extension                           : CM (complete main)\nFormat settings, Endianness              : Big\nCodec ID                                 : A_AC3\nDuration                                 : 2h 1mn\nBit rate mode                            : Constant\nBit rate                                 : 448 Kbps\nChannel(s)                               : 6 channels\nChannel positions                        : Front: L C R, Side: L R, LFE\nSampling rate                            : 48.0 KHz\nBit depth                                : 16 bits\nCompression mode                         : Lossy\nStream size                              : 389 MiB (35%)\nLanguage                                 : English\nDefault                                  : Yes\nForced                                   : No","torrent":{"xt":"urn:btih:44d9a5c5247c1946358bcace0cc5b13b5d6b6b8a","amp;dn":"Dragonwolf+2013+BRRip+x264+AC3-MiLLENiUM","amp;tr":["udp%3A%2F%2Ftracker.openbittorrent.com%3A80","udp%3A%2F%2Fopen.demonii.com%3A1337","udp%3A%2F%2Ftracker.coppersurfer.tk%3A6969","udp%3A%2F%2Fexodus.desync.com%3A6969"],"infoHash":"44d9a5c5247c1946358bcace0cc5b13b5d6b6b8a","infoHashBuffer":{"type":"Buffer","data":[68,217,165,197,36,124,25,70,53,139,202,206,12,197,177,59,93,107,107,138]},"announce":[],"urlList":[]}}